<mxfile host="app.diagrams.net" modified="2024-06-10T10:47:59.131Z" agent="Mozilla/5.0 (X11; Linux x86_64) AppleWebKit/537.36 (KHTML, like Gecko) Chrome/125.0.0.0 Safari/537.36" etag="tMpWW_oLArJpnStqI5OG" version="24.5.2" type="github">
  <diagram name="Page-1" id="edf60f1a-56cd-e834-aa8a-f176f3a09ee4">
    <mxGraphModel dx="1436" dy="674" grid="1" gridSize="10" guides="1" tooltips="1" connect="1" arrows="1" fold="1" page="1" pageScale="1" pageWidth="1100" pageHeight="850" background="none" math="0" shadow="0">
      <root>
        <mxCell id="0" />
        <mxCell id="1" parent="0" />
        <mxCell id="0HX5EbVThGRFoe1aolxp-29" value="" style="edgeStyle=orthogonalEdgeStyle;rounded=0;orthogonalLoop=1;jettySize=auto;html=1;" edge="1" parent="1" source="60e70716793133e9-30" target="0HX5EbVThGRFoe1aolxp-7">
          <mxGeometry relative="1" as="geometry" />
        </mxCell>
        <mxCell id="60e70716793133e9-30" value="image" style="strokeWidth=1;html=1;shape=mxgraph.flowchart.terminator;whiteSpace=wrap;rounded=0;shadow=1;labelBackgroundColor=none;fontFamily=Verdana;fontSize=8;align=center;" parent="1" vertex="1">
          <mxGeometry x="10" y="72.5" width="70" height="85" as="geometry" />
        </mxCell>
        <mxCell id="0HX5EbVThGRFoe1aolxp-31" value="" style="edgeStyle=orthogonalEdgeStyle;rounded=0;orthogonalLoop=1;jettySize=auto;html=1;" edge="1" parent="1" source="0HX5EbVThGRFoe1aolxp-5" target="0HX5EbVThGRFoe1aolxp-19">
          <mxGeometry relative="1" as="geometry" />
        </mxCell>
        <mxCell id="0HX5EbVThGRFoe1aolxp-5" value="" style="rounded=1;whiteSpace=wrap;html=1;" vertex="1" parent="1">
          <mxGeometry x="100" y="75" width="210" height="85" as="geometry" />
        </mxCell>
        <mxCell id="0HX5EbVThGRFoe1aolxp-6" value="text regconition" style="rounded=1;whiteSpace=wrap;html=1;arcSize=50;" vertex="1" parent="1">
          <mxGeometry x="200" y="95" width="90" height="40" as="geometry" />
        </mxCell>
        <mxCell id="0HX5EbVThGRFoe1aolxp-7" value="text detection" style="rounded=1;whiteSpace=wrap;html=1;arcSize=50;" vertex="1" parent="1">
          <mxGeometry x="105" y="95" width="90" height="40" as="geometry" />
        </mxCell>
        <mxCell id="0HX5EbVThGRFoe1aolxp-25" value="" style="edgeStyle=orthogonalEdgeStyle;rounded=0;orthogonalLoop=1;jettySize=auto;html=1;" edge="1" parent="1" source="0HX5EbVThGRFoe1aolxp-14" target="0HX5EbVThGRFoe1aolxp-17">
          <mxGeometry relative="1" as="geometry" />
        </mxCell>
        <mxCell id="0HX5EbVThGRFoe1aolxp-14" value="" style="rounded=1;whiteSpace=wrap;html=1;" vertex="1" parent="1">
          <mxGeometry x="320" y="70" width="300" height="90" as="geometry" />
        </mxCell>
        <mxCell id="0HX5EbVThGRFoe1aolxp-15" value="Semantic Entity Recognition" style="rounded=1;whiteSpace=wrap;html=1;arcSize=50;" vertex="1" parent="1">
          <mxGeometry x="330" y="95" width="160" height="40" as="geometry" />
        </mxCell>
        <mxCell id="0HX5EbVThGRFoe1aolxp-16" value="relation extracion&amp;nbsp;" style="rounded=1;whiteSpace=wrap;html=1;arcSize=50;" vertex="1" parent="1">
          <mxGeometry x="500" y="95" width="110" height="40" as="geometry" />
        </mxCell>
        <mxCell id="0HX5EbVThGRFoe1aolxp-22" value="" style="edgeStyle=orthogonalEdgeStyle;rounded=0;orthogonalLoop=1;jettySize=auto;html=1;" edge="1" parent="1" source="0HX5EbVThGRFoe1aolxp-17" target="0HX5EbVThGRFoe1aolxp-21">
          <mxGeometry relative="1" as="geometry" />
        </mxCell>
        <mxCell id="0HX5EbVThGRFoe1aolxp-17" value="&lt;div&gt;Relation Extraction Model&lt;/div&gt;" style="rounded=1;whiteSpace=wrap;html=1;" vertex="1" parent="1">
          <mxGeometry x="640" y="70" width="150" height="90" as="geometry" />
        </mxCell>
        <mxCell id="0HX5EbVThGRFoe1aolxp-18" value="ocr model" style="text;html=1;align=center;verticalAlign=middle;whiteSpace=wrap;rounded=0;" vertex="1" parent="1">
          <mxGeometry x="165" y="70" width="60" height="30" as="geometry" />
        </mxCell>
        <mxCell id="0HX5EbVThGRFoe1aolxp-19" value="key-infomartion extraction model" style="text;html=1;align=center;verticalAlign=middle;whiteSpace=wrap;rounded=0;" vertex="1" parent="1">
          <mxGeometry x="370" y="70" width="210" height="30" as="geometry" />
        </mxCell>
        <mxCell id="0HX5EbVThGRFoe1aolxp-21" value="End" style="strokeWidth=1;html=1;shape=mxgraph.flowchart.terminator;whiteSpace=wrap;rounded=0;shadow=1;labelBackgroundColor=none;fontFamily=Verdana;fontSize=8;align=center;" vertex="1" parent="1">
          <mxGeometry x="810" y="70" width="90" height="90" as="geometry" />
        </mxCell>
      </root>
    </mxGraphModel>
  </diagram>
</mxfile>
